<svg xmlns="http://www.w3.org/2000/svg" viewBox="-53 145 504 504"><path d="M300.4 276.9c9.4 13 13.9 28.5 13.9 46.6 0 18.6-4.7 33.6-14.1 44.9-5.2 6.3-13 12.1-23.3 17.4 15.6 5.7 27.3 14.6 35.3 26.9 7.9 12.3 11.9 27.2 11.9 44.7 0 18.1-4.5 34.3-13.5 48.7-5.8 9.5-13 17.5-21.6 24-9.8 7.4-21.2 12.5-34.5 15.3-13.2 2.8-27.6 4.1-43.1 4.1H73.9V244.6h147.3c37.3.5 63.6 11.3 79.2 32.3zm-165.7 20.6v67.3h74.2c13.2 0 24-2.5 32.3-7.6 8.3-5.1 12.4-13.9 12.4-26.7 0-14.2-5.5-23.6-16.4-28.1-9.4-3.2-21.5-4.8-36-4.8h-66.5v-.1zm0 117.7v81.3h74c13.2 0 23.6-1.8 30.9-5.4 13.4-6.6 20-19.3 20-38 0-15.9-6.5-26.7-19.4-32.7-7.2-3.3-17.4-5.1-30.5-5.2h-75z"/></svg>