<svg id="Layer_1" xmlns="http://www.w3.org/2000/svg" viewBox="-87 320.5 436.5 436"><style>.st0{fill:#020202}</style><path class="st0" d="M-15.5 466.3h21v97.2c-10.8 2-18.7 2.9-27.3 2.9-25.6 0-39-11.6-39-33.8 0-21.4 14.2-35.3 36.1-35.3 3.4 0 6 .3 9.1 1.1l.1-32.1zm0 48.9c-2.5-.8-4.5-1.1-7.1-1.1-10.6 0-16.8 6.5-16.8 18 0 11.2 5.9 17.3 16.6 17.3 2.3 0 4.2-.1 7.2-.5v-33.7z"/><path class="st0" d="M38.9 498.7v48.7c0 16.8-1.2 24.8-4.9 31.8-3.4 6.7-7.9 10.9-17.2 15.5l-19.5-9.3c9.3-4.4 13.8-8.2 16.6-14 3-6 4-13 4-31.2v-41.5h21zm-21-32.3h21v21.5h-21v-21.5zM51.6 503.5c9.3-4.4 18.1-6.3 27.8-6.3 10.8 0 17.9 2.9 21 8.5 1.8 3.1 2.3 7.2 2.3 16v42.7c-9.4 1.4-21.3 2.3-30 2.3-17.6 0-25.5-6.1-25.5-19.8 0-14.7 10.5-21.5 36.3-23.7v-4.6c0-3.8-1.9-5.2-7.2-5.2-7.8 0-16.5 2.2-24.7 6.4v-16.3zm32.9 33.4c-13.9 1.4-18.4 3.5-18.4 9 0 4.1 2.6 6 8.3 6 3.1 0 6-.3 10.1-1v-14zM113 502c12.4-3.3 22.6-4.8 33-4.8 10.8 0 18.5 2.5 23.2 7.2 4.4 4.5 5.7 9.4 5.7 19.9v41.2h-21v-40.4c0-8-2.7-11-10.2-11-2.9 0-5.5.3-9.7 1.5v49.9h-21V502zM183.1 577c7.4 3.8 14.7 5.6 22.5 5.6 13.8 0 19.6-5.6 19.6-19v-.4c-4.1 2-8.2 2.9-13.6 2.9-18.4 0-30.1-12.1-30.1-31.4 0-23.9 17.3-37.4 48-37.4 9 0 17.3 1 27.4 3l-7.2 15.1c-5.6-1.1-.4-.1-4.7-.6v2.2l.3 8.9.1 11.5c.1 2.9.1 5.7.3 8.6v5.7c0 18-1.5 26.5-6 33.4-6.5 10.2-17.9 15.3-34 15.3-8.2 0-15.3-1.2-22.6-4.1V577zm41.7-62.8h-2.2c-4.1-.1-8.9 1-12.1 3-5 2.9-7.6 8-7.6 15.4 0 10.5 5.2 16.5 14.5 16.5 2.9 0 5.2-.5 7.9-1.4v-7.2c0-2.5-.1-5.2-.1-8l-.1-9.7-.1-7-.2-1.6zM289.4 496.9c21 0 33.8 13.2 33.8 34.6 0 22-13.4 35.7-34.6 35.7-21 0-34-13.2-34-34.5 0-22 13.4-35.8 34.8-35.8zm-.4 53.5c8 0 12.8-6.7 12.8-18.3 0-11.5-4.6-18.3-12.7-18.3-8.3 0-13.1 6.7-13.1 18.3.1 11.6 4.8 18.3 13 18.3z"/></svg>