<svg xmlns="http://www.w3.org/2000/svg" viewBox="-53 145 504 504"><path d="M242.4 536.2c-4.2-1.4-6.9-4.5-9.1-8.2-3.2-5.3-6.6-10.6-9.6-16-11.5-20.7-23.1-41.2-34.6-61.9-.3-.5-.6-1-1-1.6-1.9.5-3.7 1-5.6 1.4-25.5 6.6-50.8 13.2-76.3 19.7-3 .8-5.9 1.6-9 1.6-6.1 0-10.7-2.7-14-7.9-.8-1.3-1.4-2.6-1.9-4-23.4-50.5-46.8-101.2-70.1-151.7-4.2-9-8.3-18.1-12.4-27.1-1-2.2-1.6-4.7-2.6-7.1-.2-.3-.3-.6-.5-1v-2.9c.2-.5.5-.8.6-1.3.5-1.4 1.4-2.4 2.9-3 1.1-.5 2.2-.8 3.4-.8 6.1-.6 12.2-1.1 18.3-1.6 8.3-.6 16.8-1.3 25.2-1.9 10.7-.8 21.7-1.8 32.4-2.6 1.8-.2 3.5-.3 5.1-.6h5.5c.3.2.6.2 1 .3 2.6.3 4.5 1.6 5.9 3.8 1.3 1.9 2.6 3.8 3.8 5.8 31.8 53.3 63.7 106.3 95.4 159.6.3.5.6 1.1 1.1 1.8 40.9-9.8 81.8-19.6 123-29.5-.5-.6-.6-1.1-1-1.4-13.2-18.6-26.1-37.1-39.3-55.7-.5-.6-1-1.4-1.3-2.2-1-1.9-.5-3.5 1.4-4.5 1.4-.6 2.9-1.3 4.5-1.6 7.5-1.3 15.1-2.6 22.5-3.8 9.9-1.6 19.9-3.4 29.7-5 2.6-.5 5-.8 7.5-1.1 2.2-.3 4.3.3 6.3 1.6 1.9 1.4 3.5 3.2 5.1 5l30.3 37.5c5.3 6.6 10.7 13.2 16 19.7.5.5.8 1.1 1.1 1.6v2.6c-1 1.6-2.7 2.1-4.3 2.6-17.8 4.8-35.6 9.5-53.4 14.3-.5.2-1.1.3-1.8.5.5.6.6 1 1 1.4 8.2 10.9 16.2 21.7 24.4 32.6s16.2 21.8 24.2 32.7c.6 1 1.3 1.9 1.8 3 1 1.9.5 3.5-1.3 4.7-1.1.8-2.2 1.4-3.5 1.8-4 1.6-8 3-12 4.5-33 11.9-66.1 23.7-99.1 35.6-8 2.9-16 5.6-24.2 8.3-2.1.6-4.3 1.1-6.4 1.8-1.7.2-3.3.2-5.1.2zM81.8 269.5c-5.1.5-10.3 1-15.6 1.3-5.5.5-10.7 1-16.2 1.4-6.7.6-13.6 1.1-20.4 1.8-4.5.3-9 .8-13.5 1.1-1.1.2-1.4.5-1.3 1.6.2.6.3 1.3.6 1.8.5 1.1 1 2.1 1.6 3.2 20.7 42.5 41.4 85.2 61.9 127.7 6.7 13.8 13.3 27.6 19.9 41.4.3.8.8 1.1 1.6 1 1.1-.2 2.2-.3 3.2-.6 22.1-5.3 44.1-10.6 66.2-15.7 2.2-.5 4.7-1.1 6.9-1.6 1.6-.5 2.1-1.3 1.4-2.9-.3-.8-.6-1.4-1.1-2.1-30.3-52.3-60.5-104.4-90.8-156.7-1.3-2.9-1.3-2.9-4.4-2.7zM205 444.2c.3.6.5 1 .8 1.3 9 15.6 18.1 31.3 27.3 46.8 3.5 6.1 7.2 12.2 10.9 18.3.8 1.3 1.8 2.6 2.7 3.7 1.1 1.1 2.6 1.4 4 .8.6-.3 1.3-.5 1.9-.6 26.8-9.1 53.6-18.3 80.4-27.3 12.2-4.2 24.4-8.2 36.6-12.4.6-.2 1.4-.5 2.1-.8 1.3-.6 1.4-1.3.6-2.4-.5-.8-1.1-1.8-1.6-2.6-4.8-6.7-9.8-13.3-14.6-20-8-10.9-15.9-21.8-23.9-32.7-.6-1-1.3-1.9-2.1-2.9s-1.8-1.4-3-1c-1 .3-1.8.5-2.7.8-13 3.4-26 6.7-39 10.1-26.1 6.7-52.3 13.6-78.4 20.4-.7 0-1.3.1-2 .5zm127.5-47.7c.3 0 .6-.2 1-.2 15.4-3.8 31-7.5 46.4-11.4.6-.2 1.3-.3 1.9-.6 1.4-.6 1.8-1.4.6-2.7-.2-.2-.3-.5-.5-.6-11.4-14.4-22.6-28.9-34-43.1-.2-.3-.5-.6-.6-.8-1.1-1.3-2.4-1.6-4.2-1.3-13.8 2.6-27.6 5-41.4 7.5-1.6.3-3.4.5-5 1-1.4.3-1.6 1-1 2.1.3.5.6 1.1 1.1 1.6 11.5 15.7 22.9 31.6 34.5 47.3.4.3.7.7 1.2 1.2z"/></svg>