<svg xmlns="http://www.w3.org/2000/svg" viewBox="-53 145 371 371"><path d="M-53 397.6h12.3v-48.5l19.3 42.3c2.1 5.1 5.2 7 11.4 7s8.9-1.9 11.3-7l19-42.3v48.5h12.3v-48.5c0-4.6-1.9-7-5.9-8.3-9.2-2.8-15.6-.4-18.4 5.9l-18.8 41.7-18.1-41.7c-2.7-6.4-9.1-8.6-18.4-5.9-3.8 1.3-5.8 3.6-5.8 8.3l-.2 48.5zM42.4 358.1h12.3v26.6c0 1.5.4 4.9 7.1 5.1h26.7v-31.9h12.3v43.8c0 10.8-13.3 13.1-19.4 13.1H42.5v-8.4h38.9c7.8-.9 7-4.9 7-6.1v-3.1H62.3c-12.3 0-20-5.5-20-11.6.1-.5.3-27.3.1-27.5zM307.1 327.3c-7.6-.3-13.3.6-18.4 2.5-1.5.6-3.6.6-3.8 2.4.9.9.9 1.9 1.5 3 1 1.9 3.1 4.4 4.9 5.8 1.9 1.5 4 3 6.1 4.4 3.6 2.4 7.8 3.6 11.4 5.9 2.1 1.3 4.3 3 6.1 4.4 1 .9 1.8 1.9 3 2.5v-.3c-.6-.9-.9-2.1-1.5-3-.9-.9-1.9-1.7-2.8-2.8-2.8-3.6-6.1-7-9.8-9.5-3-2.1-9.7-4.9-10.8-8.5l-.3-.2c2.1-.3 4.4-.9 6.5-1.5 3.1-.9 6.1-.6 9.5-1.5 1.5-.4 3-.9 4.4-1.3v-.9c-1.7-1.8-3-4-4.6-5.5-4.9-4.3-10.1-8.3-15.6-11.6-3-1.9-6.8-3.1-9.8-4.6-1-.6-3-.9-3.6-1.8-1.8-2.1-2.5-4.9-3.8-7.1-2.8-5.3-5.3-11-7.8-16.5-1.8-3.6-2.8-7.4-4.9-10.8-9.7-16-20.3-25.8-36.5-35.2-3.6-1.9-7.6-2.8-12-3.8-2.4 0-4.6-.3-7-.4-1.5-.6-3-2.5-4.4-3.4-5.3-3.4-19.3-10.8-23.3-1-2.5 6.1 3.8 12.3 5.9 15.3 1.8 2.1 3.6 4.6 4.9 7 .6 1.8.9 3.4 1.5 5.1 1.5 4.3 3 8.6 4.9 12.6 1 1.9 2.1 4 3.6 5.9.9 1 2.1 1.5 2.4 3.1-1.3 1.9-1.5 4.6-2.1 7-3.4 10.5-2.1 23.9 2.8 31.6 1.5 2.4 5.1 7.6 9.9 5.5 4.2-1.8 3.4-7 4.4-11.9.3-1 0-1.9.6-2.5v.3c1.3 2.5 2.5 5.3 3.8 7.8 3 4.6 8 9.5 12.2 12.6 2.4 1.8 4 4.6 7 5.8v-.3h-.3c-.6-.9-1.5-1.3-2.1-1.9-1.7-1.7-3.6-3.8-4.9-5.8-4-5.3-7.4-11.3-10.5-17.1-1.5-3-2.8-6.1-4-9.1-.6-1-.6-2.8-1.5-3.4-1.5 2.1-3.6 3.8-4.4 6.4-1.7 4-1.9 9.1-2.5 14.1-.4 0-.3 0-.4.3-3-.9-4-3.8-5.3-6.5-2.8-6.8-3.4-17.5-.9-25.1.6-1.9 3.6-8.3 2.4-10.1-.6-1.8-2.5-2.8-3.6-4.3-1.3-1.7-2.5-4-3.4-6.1-2.4-5.3-3.4-11.3-5.9-16.5-1-2.5-3.1-5.1-4.6-7.1-1.7-2.5-3.8-4.4-5.3-7.4-.4-1-1-2.7-.4-3.8.3-.9.6-1 1.3-1.3 1.3-1 4.6.3 5.9.9 3.6 1.5 6.4 2.8 9.3 4.6 1.3.9 2.8 2.8 4.4 3.1h1.9c3 .6 6.4.3 9.2 1 5.1 1.8 9.5 4 13.5 6.5 12.2 7.8 22.6 19 29.4 32.3 1 2.1 1.7 4.3 2.5 6.4 1.9 4.6 4.4 9.3 6.4 13.9 1.9 4.4 3.8 8.9 6.8 12.6 1.5 1.9 7 3 9.7 4 1.9.9 4.9 1.7 6.5 2.5 3.1 1.9 6.4 4.2 9.5 6.4 1.7 1.7 6.5 4 6.8 5.9z"/><path d="M211 245.3c-1.7 0-2.8.2-3.8.4v.3h.3c.9 1.5 2.1 2.5 3 3.8.9 1.5 1.5 3 2.1 4.4l.3-.3c1.3-.9 1.9-2.5 1.9-4.6-.6-.6-.6-1.3-1-1.9-.8-.7-2-1.2-2.8-2.1zM110.4 397.6h35.5c4.3 0 8-.9 11.4-2.4 5.3-2.5 7.8-5.8 7.8-10.1V376c0-3.6-3-6.7-8.6-9.1-3-1-6.7-1.8-10.5-1.8h-14.8c-5.1 0-7.4-1.5-8-4.9v-6.3-1c.6-2.5 1.9-3.1 6.4-3.6h36V341h-34.4c-5.1 0-7.6.3-9.9 1-7.1 2.4-10.5 5.9-10.5 12.3v7.1c0 5.5 6.1 10.4 16.6 11.4h17.5c3.8.4 5.5 1 6.7 2.5.9.9.9 1.5.9 2.4v7.1c0 .9-.6 1.9-1.7 3-1 1-3 1.8-5.3 1.8h-35.3v8h.2zM241.6 383.4c0 8.5 6.4 13.1 19 13.9 1.3 0 2.4.3 3.6.3h32.1v-8.3h-32.2c-7.1 0-9.9-1.8-9.9-6.1v-42.4h-12.5v42.6h-.1zM172.9 383.8v-29.1c0-7.4 5.3-12 15.6-13.3 1 0 2.4-.3 3.4-.3h23.4c1.3 0 2.4 0 3.6.3 10.4 1.5 15.4 5.9 15.4 13.3v29.1c0 6.1-2.1 9.3-7.1 11.4l12 11H225l-9.7-8.9-9.9.6h-13.1c-2.1 0-4.6-.3-7.1-.9-8.6-2.4-12.3-6.4-12.3-13.2zm13.2-.7c0 .4.3.9.3 1.3.6 3.4 3.8 5.3 8.6 5.3h11.3l-10.1-9.3h14.1l8.9 8c1.8-.9 2.8-2.4 3.1-4V355v-1c-.6-3.1-3.8-5.1-8.6-5.1h-18.4c-5.5 0-9.1 2.4-9.1 6.1v28.1h-.1z"/></svg>