<svg xmlns="http://www.w3.org/2000/svg" viewBox="-241 333 128 128"><path d="M-239.6 348.3c6.8-1.3 16-2.1 28.6-2.1 13.7 0 23.9 2.9 30.5 8.4 6 5 10 13.1 10 22.9s-3.2 17.9-8.9 23.4c-7.4 7.4-19.2 11-32.6 11-3.4 0-6.8-.3-9.2-.5V450h-18.4V348.3zm18.6 47.9c2.4.5 5.3.8 9.2.8 13.9 0 22.6-6.8 22.6-18.9 0-11.6-7.9-17.6-21-17.6-5.3 0-8.9.5-10.8.8v34.9zM-162.1 432.7c4.2 2.6 12.3 5.3 19.2 5.3 8.1 0 11.8-3.4 11.8-8.1 0-5-3.2-7.6-12.1-10.8-14.4-5-20.5-12.9-20.5-21.5 0-13.1 10.8-23.4 28.1-23.4 8.1 0 15.5 2.1 19.7 4.5l-3.7 13.4c-3.2-1.8-9.2-4.2-15.8-4.2-6.8 0-10.2 3.2-10.2 7.9s3.4 7.1 12.9 10.2c13.4 5 19.7 11.8 19.7 22.9 0 13.4-10.5 23.1-30.2 23.1-8.9 0-17.1-2.1-22.6-5.3l3.7-14z"/></svg>