<svg xmlns="http://www.w3.org/2000/svg" viewBox="-49 141 512 512"><path d="M205 224.3c-14.1.1-27.5 1.3-39.4 3.4-34.9 6.2-41.2 19.1-41.2 42.8v31.4h82.4v10.5H93.5c-23.9 0-44.9 14.4-51.5 41.8-7.6 31.4-7.9 51 0 83.7 5.9 24.4 19.8 41.8 43.8 41.8h28.3V442c0-27.2 23.5-51.2 51.5-51.2h82.3c22.9 0 41.2-18.9 41.2-41.9v-78.5c0-22.3-18.8-39.1-41.2-42.8-14.2-2.3-28.8-3.4-42.9-3.3zm-44.6 25.3c8.5 0 15.5 7.1 15.5 15.7 0 8.7-7 15.7-15.5 15.7s-15.5-7-15.5-15.7 7-15.7 15.5-15.7z"/><path d="M299.4 312.4V349c0 28.4-24 52.2-51.5 52.2h-82.3c-22.5 0-41.2 19.3-41.2 41.9v78.5c0 22.3 19.4 35.5 41.2 41.9 26.1 7.7 51.1 9.1 82.3 0 20.7-6 41.2-18.1 41.2-41.9v-31.4h-82.3v-10.5h123.5c23.9 0 32.9-16.7 41.2-41.8 8.6-25.8 8.2-50.6 0-83.7-5.9-23.8-17.2-41.8-41.2-41.8h-30.9zm-46.3 198.7c8.5 0 15.5 7 15.5 15.7s-6.9 15.8-15.5 15.8c-8.5 0-15.5-7.1-15.5-15.8 0-8.7 7-15.7 15.5-15.7z"/></svg>