<svg xmlns="http://www.w3.org/2000/svg" viewBox="-53 145 504 504"><path d="M45.9 397c0 60.7 35.2 113.1 86.4 137.6l-73-199.9c-8.4 19-13.4 40.1-13.4 62.3zm256.1-7.7c0-18.9-6.7-31.7-12.8-42.3-7.7-12.8-15.1-23.4-15.1-35.6 0-13.9 10.6-27.3 25.7-27.3h2.3c-27.3-25.1-63.4-40-103-40-53.5 0-100.3 27.3-127.6 69h10c16.2 0 40.6-2.3 40.6-2.3 8.3-.6 9.5 11.8 1.1 12.8 0 0-8.3 1.1-17.2 1.7l55.5 165.3 33.4-100.3-24-65c-8.3-.6-16.2-1.7-16.2-1.7-8.3-.6-7.2-13.3 1.1-12.8 0 0 25.1 2.3 40 2.3 16.2 0 40.6-2.3 40.6-2.3 8.3-.6 9.5 11.8 1.1 12.8 0 0-8.3 1.1-17.2 1.7l55.2 164.3 15.1-50.6c7.5-20.2 11.4-37 11.4-49.7zm-100.3 21.2l-45.6 133.1c13.9 3.9 28.4 6.2 43.5 6.2 17.8 0 35.2-3.3 50.6-8.9-.6-.6-.6-1.1-1.1-2.3l-47.4-128.1zm131.5-87c.6 5 1.1 10 1.1 15.6 0 15.6-2.7 32.9-11.8 54.5l-46.6 134.7c45.6-26.7 75.8-75.8 75.8-132 .4-26-6.8-51.1-18.5-72.8zM20.8 397c0 98 80.2 178.2 178.2 178.2S377.2 495 377.2 397 297 218.8 199 218.8 20.8 298.4 20.8 397zm8.3 0c0-93.5 76.3-169.9 169.9-169.9S368.9 303.5 368.9 397 292.5 566.9 199 566.9 29.1 490.5 29.1 397z"/></svg>