<svg id="Capa_1" xmlns="http://www.w3.org/2000/svg" viewBox="-298 84 626 626"><style>.st0{fill:none;stroke:#179ee8;stroke-width:14;stroke-miterlimit:10}</style><path class="st0" d="M119.1 263h-371.2c-9.3 0-16.9 7.6-16.9 16.9v245.7c0 9.3 7.6 16.9 16.9 16.9h371.2c9.3 0 16.9-7.6 16.9-16.9V279.9c0-9.3-7.6-16.9-16.9-16.9zM-4.8 414.5c31.3 21.1 112.3 83.8 112.3 83.8 3.2 2.2 3.5 7.8 1.8 11.1-1.6 3.3-6.7 5.4-9.9 3.2 0 0-86.2-62.2-119.1-84.8-1.8-1.2-3.4.3-3.4.3l-36.2 28.8c-2 1.6-4.6 2.5-7.3 2.5-2.8 0-5.4-.9-7.3-2.5l-36.6-29.2s-1.3-1.1-2.7-.1c-32.6 22.6-118.4 85-118.4 85-3.2 2.2-9.4.2-11-3.2-1.6-3.3-1.4-8.9 1.8-11.1 0 0 81.1-62.5 111.9-83.5 1.8-1.2-.1-3-.1-3l-114.3-102.9c-4.2-3.4-5.4-9.5-2.8-13.9 1.5-2.6 4.2-4.2 7.2-4.2 2.1 0 4.2.8 5.9 2.2l162.6 142.5c1 .8 2.3 1.2 3.8 1.2s2.8-.5 3.8-1.2L99.7 293.1c1.7-1.4 3.9-2.2 5.9-2.2 3 0 5.7 1.6 7.2 4.2 2.6 4.4 1.3 10.5-2.8 13.9L-4.6 412.2s-1.6 1.3-.2 2.3z" id="Layer_5_31_"/></svg>