<svg id="Слой_1" xmlns="http://www.w3.org/2000/svg" viewBox="0 0 317 317"><style>.st0{fill:#020b10}.st1{fill:#179ee8}</style><g id="XMLID_1_"><path id="XMLID_26_" class="st0" d="M256.5 14c26 0 47.1 21.1 47.1 47.1v194.8c0 26-21.1 47.1-47.1 47.1H61.7c-26 0-47.1-21.1-47.1-47.1V61.1c0-26 21.1-47.1 47.1-47.1h194.8m0-2H61.7c-27.1 0-49.1 22-49.1 49.1v194.8c0 27.1 22 49.1 49.1 49.1h194.8c27.1 0 49.1-22 49.1-49.1V61.1c0-27.1-22-49.1-49.1-49.1z"/></g><g id="XMLID_2_"><g id="XMLID_5_"><g id="XMLID_20_"><path id="XMLID_37_" class="st0" d="M255.2 241.6l-129.5-66v-35.5l129.5-65-.2 35.5-90 44c-4.9 1.9-9.2 3.1-12.9 3.5v.7c4 .6 8.4 1.8 13.3 3.8l89.8 43.5v35.5z"/></g></g><g id="XMLID_22_"><g id="XMLID_4_"><path id="XMLID_30_" class="st1" d="M231.5 74.7H80c-9.3 0-16.8 7.5-16.8 16.8s7.5 16.8 16.8 16.8h83.7l67.8-33.6z"/></g><g id="XMLID_7_"><path id="XMLID_31_" class="st1" d="M231.5 242.3H80c-9.3 0-16.8-7.5-16.8-16.8s7.5-16.8 16.8-16.8h83.7l67.8 33.6z"/></g><g id="XMLID_6_"><path id="XMLID_32_" class="st1" d="M79.8 141.2h32.5c.3 0 .5.2.5.5v32.7c0 .3-.2.5-.5.5H79.8c-9.3 0-16.8-7.5-16.8-16.8 0-9.4 7.5-16.9 16.8-16.9z"/></g></g></g></svg>