<svg id="Layer_1" xmlns="http://www.w3.org/2000/svg" viewBox="-406 191.8 410.2 410.2"><style>.st0{fill:none;stroke:#179ee8;stroke-width:13;stroke-miterlimit:10}</style><path class="st0" d="M-73.1 312.7c-5.9 2.6-11.9 4.6-18.2 6.1 6.9-6.5 12.1-14.7 15-23.8.8-2.6-2-4.9-4.3-3.5-8.7 5.2-18 9-27.8 11.5-.6.1-1.2.2-1.7.2-1.8 0-3.5-.7-4.9-1.9-10.4-9.2-23.8-14.2-37.6-14.2-6 0-12.1.9-18 2.8-18.4 5.7-32.7 20.9-37.1 39.7-1.7 7-2.1 14.1-1.3 20.9.1.8-.3 1.3-.5 1.6-.4.5-1 .7-1.6.7h-.2c-40.6-3.6-77-23.1-102.7-54.6-1.3-1.6-3.8-1.4-4.9.4-5 8.6-7.7 18.5-7.7 28.6 0 15.4 6.2 29.9 17 40.5-4.5-1.1-8.9-2.8-13-5-2-1.1-4.4.3-4.4 2.6-.3 22.9 13.1 43.3 33.2 52.5h-1.2c-3.2 0-6.4-.3-9.6-.9-2.2-.4-4.1 1.7-3.4 3.8 6.5 20.4 24 35.4 45 38.8-17.4 11.7-37.7 17.8-58.8 17.8h-6.6c-2 0-3.7 1.3-4.3 3.3-.5 1.9.4 4 2.2 5 23.8 13.8 50.9 21.1 78.4 21.1 24.1 0 46.7-4.8 67-14.2 18.7-8.6 35.2-21 49-36.7 12.9-14.7 23-31.6 30-50.3 6.7-17.8 10.2-36.9 10.2-55v-.9c0-2.9 1.3-5.7 3.6-7.5 8.7-7.1 16.3-15.4 22.6-24.8 1.9-2.7-.7-5.8-3.4-4.6z"/></svg>