<?xml version="1.0" encoding="utf-8"?>
<!-- Generator: Adobe Illustrator 19.0.0, SVG Export Plug-In . SVG Version: 6.00 Build 0)  -->
<svg version="1.1" id="Lager_1" xmlns="http://www.w3.org/2000/svg" xmlns:xlink="http://www.w3.org/1999/xlink" x="0px" y="0px"
	 viewBox="-241 333 128 128" style="enable-background:new -241 333 128 128;" xml:space="preserve">
<g>
	<g id="Ai">
		<g>
			<path d="M-212.1,421.8l-9.1,29.7H-241l33.5-104.6h24.4l34.3,104.6h-20.6l-9.4-29.7H-212.1z M-182.1,407.4l-8.3-25.7
				c-2.1-6.4-3.7-13.4-5.4-19.5h-0.3c-1.6,6.2-3.2,13.4-5.1,19.5l-8,25.7H-182.1z"/>
			<path d="M-121.1,354.9c0,5.6-4.3,10.2-11,10.2c-6.4,0-10.4-4.5-10.4-10.2c0-5.9,4.3-10.4,10.7-10.4
				C-125.4,344.5-121.4,349-121.1,354.9z M-141.4,451.5v-75.5h19.3v75.5H-141.4L-141.4,451.5z"/>
		</g>
	</g>
</g>
</svg>
