<?xml version="1.0" encoding="utf-8"?>
<!-- Generator: Adobe Illustrator 19.0.0, SVG Export Plug-In . SVG Version: 6.00 Build 0)  -->
<svg version="1.1" id="Layer_1" xmlns="http://www.w3.org/2000/svg" xmlns:xlink="http://www.w3.org/1999/xlink" x="0px" y="0px"
	 viewBox="-53 145 504 504" style="enable-background:new -53 145 504 504;" xml:space="preserve">
<g>
	<path d="M300.4,276.9c9.4,13,13.9,28.5,13.9,46.6c0,18.6-4.7,33.6-14.1,44.9c-5.2,6.3-13,12.1-23.3,17.4
		c15.6,5.7,27.3,14.6,35.3,26.9c7.9,12.3,11.9,27.2,11.9,44.7c0,18.1-4.5,34.3-13.5,48.7c-5.8,9.5-13,17.5-21.6,24
		c-9.8,7.4-21.2,12.5-34.5,15.3c-13.2,2.8-27.6,4.1-43.1,4.1H73.9V244.6h147.3C258.5,245.1,284.8,255.9,300.4,276.9z M134.7,297.5
		v67.3h74.2c13.2,0,24-2.5,32.3-7.6c8.3-5.1,12.4-13.9,12.4-26.7c0-14.2-5.5-23.6-16.4-28.1c-9.4-3.2-21.5-4.8-36-4.8H134.7
		L134.7,297.5z M134.7,415.2v81.3h74c13.2,0,23.6-1.8,30.9-5.4c13.4-6.6,20-19.3,20-38c0-15.9-6.5-26.7-19.4-32.7
		c-7.2-3.3-17.4-5.1-30.5-5.2H134.7z"/>
</g>
</svg>
