<?xml version="1.0" encoding="utf-8"?>
<!-- Generator: Adobe Illustrator 19.0.0, SVG Export Plug-In . SVG Version: 6.00 Build 0)  -->
<svg version="1.1" id="Layer_1" xmlns="http://www.w3.org/2000/svg" xmlns:xlink="http://www.w3.org/1999/xlink" x="0px" y="0px"
	 viewBox="-53 145 504 504" style="enable-background:new -53 145 504 504;" xml:space="preserve">
<style type="text/css">
	.st0{fill:#FFFFFF;}
</style>
<g>
	<polygon points="40.7,581 5.3,184 394.3,184 358.9,581 199.6,625.1 	"/>
	<polygon class="st0" points="200.3,363.6 135.9,363.6 131.4,313.9 200.3,313.9 200.3,265 200.1,265 78.3,265 79.4,278.1 
		91.4,412.5 200.3,412.5 	"/>
	<polygon class="st0" points="200.3,490.2 200.1,490.2 145.8,475.5 142.3,436.7 116,436.7 93.5,436.7 100.3,513.2 200.1,540.9 
		200.3,540.9 	"/>
	<polygon class="st0" points="187.7,363.6 187.7,412.5 259.5,412.5 253.8,475.5 199.5,490.2 199.5,540.9 299.3,513.2 300.1,505 
		311.6,376.7 312.8,363.6 299.7,363.6 	"/>
	<polygon class="st0" points="191.7,265 191.7,295.3 191.7,313.7 191.7,313.9 317.3,313.9 317.3,313.9 317.5,313.9 318.6,302.9 
		320.9,278.1 322.1,265 	"/>
</g>
</svg>
