<?xml version="1.0" encoding="utf-8"?>
<!-- Generator: Adobe Illustrator 19.0.0, SVG Export Plug-In . SVG Version: 6.00 Build 0)  -->
<svg version="1.1" id="Layer_1" xmlns="http://www.w3.org/2000/svg" xmlns:xlink="http://www.w3.org/1999/xlink" x="0px" y="0px"
	 viewBox="-53 145 504 504" style="enable-background:new -53 145 504 504;" xml:space="preserve">
<g id="Layer_1_1_">
	<g>
		<g>
			<path d="M107.9,278.3h53.2v149.6c0,67.1-32.4,91-83.6,91c-12.9,0-28.7-1.9-39.1-5.4l6-43.4c7.3,2.5,17.1,4.3,27.4,4.3
				c22.6,0,36.6-10.4,36.6-46.4L107.9,278.3L107.9,278.3z"/>
			<path d="M208.1,460.3c14.1,7.3,36.6,14.7,59.2,14.7c24.5,0,37.2-10.4,37.2-26.2c0-14.7-11-23.3-39.7-33
				c-39.1-14.1-65.3-36-65.3-70.9c0-39.7,34.3-70.2,89.8-70.2c26.8,0,46.4,5.4,60.5,12.2l-12.2,42.8c-9.1-4.3-26.2-11-48.8-11
				c-23.3,0-34.1,11-34.1,22.6c0,15.2,12.9,22,43.9,33.6c41.6,15.2,61.1,37.2,61.1,70.9c0,39.7-29.9,73.3-95.2,73.3
				c-26.8,0-53.8-7.3-67.1-14.7L208.1,460.3z"/>
		</g>
	</g>
</g>
</svg>
