<?xml version="1.0" encoding="utf-8"?>
<!-- Generator: Adobe Illustrator 19.0.0, SVG Export Plug-In . SVG Version: 6.00 Build 0)  -->
<svg version="1.1" id="Layer_1" xmlns="http://www.w3.org/2000/svg" xmlns:xlink="http://www.w3.org/1999/xlink" x="0px" y="0px"
	 viewBox="-53 145 504 504" style="enable-background:new -53 145 504 504;" xml:space="preserve">
<path d="M242.4,536.2c-4.2-1.4-6.9-4.5-9.1-8.2c-3.2-5.3-6.6-10.6-9.6-16c-11.5-20.7-23.1-41.2-34.6-61.9c-0.3-0.5-0.6-1-1-1.6
	c-1.9,0.5-3.7,1-5.6,1.4c-25.5,6.6-50.8,13.2-76.3,19.7c-3,0.8-5.9,1.6-9,1.6c-6.1,0-10.7-2.7-14-7.9c-0.8-1.3-1.4-2.6-1.9-4
	c-23.4-50.5-46.8-101.2-70.1-151.7c-4.2-9-8.3-18.1-12.4-27.1c-1-2.2-1.6-4.7-2.6-7.1c-0.2-0.3-0.3-0.6-0.5-1c0-1,0-1.9,0-2.9
	c0.2-0.5,0.5-0.8,0.6-1.3c0.5-1.4,1.4-2.4,2.9-3c1.1-0.5,2.2-0.8,3.4-0.8c6.1-0.6,12.2-1.1,18.3-1.6c8.3-0.6,16.8-1.3,25.2-1.9
	c10.7-0.8,21.7-1.8,32.4-2.6c1.8-0.2,3.5-0.3,5.1-0.6c1.8,0,3.5,0,5.5,0c0.3,0.2,0.6,0.2,1,0.3c2.6,0.3,4.5,1.6,5.9,3.8
	c1.3,1.9,2.6,3.8,3.8,5.8c31.8,53.3,63.7,106.3,95.4,159.6c0.3,0.5,0.6,1.1,1.1,1.8c40.9-9.8,81.8-19.6,123-29.5
	c-0.5-0.6-0.6-1.1-1-1.4c-13.2-18.6-26.1-37.1-39.3-55.7c-0.5-0.6-1-1.4-1.3-2.2c-1-1.9-0.5-3.5,1.4-4.5c1.4-0.6,2.9-1.3,4.5-1.6
	c7.5-1.3,15.1-2.6,22.5-3.8c9.9-1.6,19.9-3.4,29.7-5c2.6-0.5,5-0.8,7.5-1.1c2.2-0.3,4.3,0.3,6.3,1.6c1.9,1.4,3.5,3.2,5.1,5
	c10.1,12.5,20.2,25,30.3,37.5c5.3,6.6,10.7,13.2,16,19.7c0.5,0.5,0.8,1.1,1.1,1.6c0,0.8,0,1.8,0,2.6c-1,1.6-2.7,2.1-4.3,2.6
	c-17.8,4.8-35.6,9.5-53.4,14.3c-0.5,0.2-1.1,0.3-1.8,0.5c0.5,0.6,0.6,1,1,1.4c8.2,10.9,16.2,21.7,24.4,32.6s16.2,21.8,24.2,32.7
	c0.6,1,1.3,1.9,1.8,3c1,1.9,0.5,3.5-1.3,4.7c-1.1,0.8-2.2,1.4-3.5,1.8c-4,1.6-8,3-12,4.5c-33,11.9-66.1,23.7-99.1,35.6
	c-8,2.9-16,5.6-24.2,8.3c-2.1,0.6-4.3,1.1-6.4,1.8C245.8,536.2,244.2,536.2,242.4,536.2z M81.8,269.5c-5.1,0.5-10.3,1-15.6,1.3
	c-5.5,0.5-10.7,1-16.2,1.4c-6.7,0.6-13.6,1.1-20.4,1.8c-4.5,0.3-9,0.8-13.5,1.1c-1.1,0.2-1.4,0.5-1.3,1.6c0.2,0.6,0.3,1.3,0.6,1.8
	c0.5,1.1,1,2.1,1.6,3.2c20.7,42.5,41.4,85.2,61.9,127.7c6.7,13.8,13.3,27.6,19.9,41.4c0.3,0.8,0.8,1.1,1.6,1
	c1.1-0.2,2.2-0.3,3.2-0.6c22.1-5.3,44.1-10.6,66.2-15.7c2.2-0.5,4.7-1.1,6.9-1.6c1.6-0.5,2.1-1.3,1.4-2.9c-0.3-0.8-0.6-1.4-1.1-2.1
	c-30.3-52.3-60.5-104.4-90.8-156.7C84.9,269.3,84.9,269.3,81.8,269.5z M205,444.2c0.3,0.6,0.5,1,0.8,1.3c9,15.6,18.1,31.3,27.3,46.8
	c3.5,6.1,7.2,12.2,10.9,18.3c0.8,1.3,1.8,2.6,2.7,3.7c1.1,1.1,2.6,1.4,4,0.8c0.6-0.3,1.3-0.5,1.9-0.6c26.8-9.1,53.6-18.3,80.4-27.3
	c12.2-4.2,24.4-8.2,36.6-12.4c0.6-0.2,1.4-0.5,2.1-0.8c1.3-0.6,1.4-1.3,0.6-2.4c-0.5-0.8-1.1-1.8-1.6-2.6c-4.8-6.7-9.8-13.3-14.6-20
	c-8-10.9-15.9-21.8-23.9-32.7c-0.6-1-1.3-1.9-2.1-2.9c-0.8-1-1.8-1.4-3-1c-1,0.3-1.8,0.5-2.7,0.8c-13,3.4-26,6.7-39,10.1
	c-26.1,6.7-52.3,13.6-78.4,20.4C206.3,443.7,205.7,443.8,205,444.2z M332.5,396.5c0.3,0,0.6-0.2,1-0.2c15.4-3.8,31-7.5,46.4-11.4
	c0.6-0.2,1.3-0.3,1.9-0.6c1.4-0.6,1.8-1.4,0.6-2.7c-0.2-0.2-0.3-0.5-0.5-0.6c-11.4-14.4-22.6-28.9-34-43.1c-0.2-0.3-0.5-0.6-0.6-0.8
	c-1.1-1.3-2.4-1.6-4.2-1.3c-13.8,2.6-27.6,5-41.4,7.5c-1.6,0.3-3.4,0.5-5,1c-1.4,0.3-1.6,1-1,2.1c0.3,0.5,0.6,1.1,1.1,1.6
	c11.5,15.7,22.9,31.6,34.5,47.3C331.7,395.6,332,396,332.5,396.5z"/>
</svg>
