<?xml version="1.0" encoding="utf-8"?>
<!-- Generator: Adobe Illustrator 19.0.0, SVG Export Plug-In . SVG Version: 6.00 Build 0)  -->
<svg version="1.1" id="Layer_1" xmlns="http://www.w3.org/2000/svg" xmlns:xlink="http://www.w3.org/1999/xlink" x="0px" y="0px"
	 viewBox="-53 145 371 371" style="enable-background:new -53 145 371 371;" xml:space="preserve">
<path d="M-53,397.6h12.3v-48.5l19.3,42.3c2.1,5.1,5.2,7,11.4,7s8.9-1.9,11.3-7l19-42.3v48.5h12.3v-48.5c0-4.6-1.9-7-5.9-8.3
	c-9.2-2.8-15.6-0.4-18.4,5.9l-18.8,41.7l-18.1-41.7c-2.7-6.4-9.1-8.6-18.4-5.9c-3.8,1.3-5.8,3.6-5.8,8.3L-53,397.6L-53,397.6z"/>
<path d="M42.4,358.1h12.3v26.6c0,1.5,0.4,4.9,7.1,5.1c3.6,0,26.6,0,26.7,0v-31.9h12.3c0,0,0,43.5,0,43.8c0,10.8-13.3,13.1-19.4,13.1
	H42.5v-8.4h38.9c7.8-0.9,7-4.9,7-6.1v-3.1H62.3c-12.3,0-20-5.5-20-11.6C42.4,385.1,42.6,358.3,42.4,358.1L42.4,358.1z"/>
<path d="M307.1,327.3c-7.6-0.3-13.3,0.6-18.4,2.5c-1.5,0.6-3.6,0.6-3.8,2.4c0.9,0.9,0.9,1.9,1.5,3c1,1.9,3.1,4.4,4.9,5.8
	c1.9,1.5,4,3,6.1,4.4c3.6,2.4,7.8,3.6,11.4,5.9c2.1,1.3,4.3,3,6.1,4.4c1,0.9,1.8,1.9,3,2.5v-0.3c-0.6-0.9-0.9-2.1-1.5-3
	c-0.9-0.9-1.9-1.7-2.8-2.8c-2.8-3.6-6.1-7-9.8-9.5c-3-2.1-9.7-4.9-10.8-8.5c0,0,0,0-0.3-0.2c2.1-0.3,4.4-0.9,6.5-1.5
	c3.1-0.9,6.1-0.6,9.5-1.5c1.5-0.4,3-0.9,4.4-1.3c0-0.3,0-0.6,0-0.9c-1.7-1.8-3-4-4.6-5.5c-4.9-4.3-10.1-8.3-15.6-11.6
	c-3-1.9-6.8-3.1-9.8-4.6c-1-0.6-3-0.9-3.6-1.8c-1.8-2.1-2.5-4.9-3.8-7.1c-2.8-5.3-5.3-11-7.8-16.5c-1.8-3.6-2.8-7.4-4.9-10.8
	c-9.7-16-20.3-25.8-36.5-35.2c-3.6-1.9-7.6-2.8-12-3.8c-2.4,0-4.6-0.3-7-0.4c-1.5-0.6-3-2.5-4.4-3.4c-5.3-3.4-19.3-10.8-23.3-1
	c-2.5,6.1,3.8,12.3,5.9,15.3c1.8,2.1,3.6,4.6,4.9,7c0.6,1.8,0.9,3.4,1.5,5.1c1.5,4.3,3,8.6,4.9,12.6c1,1.9,2.1,4,3.6,5.9
	c0.9,1,2.1,1.5,2.4,3.1c-1.3,1.9-1.5,4.6-2.1,7c-3.4,10.5-2.1,23.9,2.8,31.6c1.5,2.4,5.1,7.6,9.9,5.5c4.2-1.8,3.4-7,4.4-11.9
	c0.3-1,0-1.9,0.6-2.5v0.3c1.3,2.5,2.5,5.3,3.8,7.8c3,4.6,8,9.5,12.2,12.6c2.4,1.8,4,4.6,7,5.8v-0.3c0,0,0,0-0.3,0
	c-0.6-0.9-1.5-1.3-2.1-1.9c-1.7-1.7-3.6-3.8-4.9-5.8c-4-5.3-7.4-11.3-10.5-17.1c-1.5-3-2.8-6.1-4-9.1c-0.6-1-0.6-2.8-1.5-3.4
	c-1.5,2.1-3.6,3.8-4.4,6.4c-1.7,4-1.9,9.1-2.5,14.1c-0.4,0-0.3,0-0.4,0.3c-3-0.9-4-3.8-5.3-6.5c-2.8-6.8-3.4-17.5-0.9-25.1
	c0.6-1.9,3.6-8.3,2.4-10.1c-0.6-1.8-2.5-2.8-3.6-4.3c-1.3-1.7-2.5-4-3.4-6.1c-2.4-5.3-3.4-11.3-5.9-16.5c-1-2.5-3.1-5.1-4.6-7.1
	c-1.7-2.5-3.8-4.4-5.3-7.4c-0.4-1-1-2.7-0.4-3.8c0.3-0.9,0.6-1,1.3-1.3c1.3-1,4.6,0.3,5.9,0.9c3.6,1.5,6.4,2.8,9.3,4.6
	c1.3,0.9,2.8,2.8,4.4,3.1c0.6,0,1.3,0,1.9,0c3,0.6,6.4,0.3,9.2,1c5.1,1.8,9.5,4,13.5,6.5c12.2,7.8,22.6,19,29.4,32.3
	c1,2.1,1.7,4.3,2.5,6.4c1.9,4.6,4.4,9.3,6.4,13.9c1.9,4.4,3.8,8.9,6.8,12.6c1.5,1.9,7,3,9.7,4c1.9,0.9,4.9,1.7,6.5,2.5
	c3.1,1.9,6.4,4.2,9.5,6.4C302,323.1,306.8,325.4,307.1,327.3L307.1,327.3z"/>
<path d="M211,245.3c-1.7,0-2.8,0.2-3.8,0.4c0,0,0,0,0,0.3c0,0,0,0,0.3,0c0.9,1.5,2.1,2.5,3,3.8c0.9,1.5,1.5,3,2.1,4.4l0.3-0.3
	c1.3-0.9,1.9-2.5,1.9-4.6c-0.6-0.6-0.6-1.3-1-1.9C213,246.7,211.8,246.2,211,245.3L211,245.3z"/>
<path d="M110.4,397.6h35.5c4.3,0,8-0.9,11.4-2.4c5.3-2.5,7.8-5.8,7.8-10.1v-9.1c0-3.6-3-6.7-8.6-9.1c-3-1-6.7-1.8-10.5-1.8h-14.8
	c-5.1,0-7.4-1.5-8-4.9c0-0.4,0-0.9,0-1v-5.3c0-0.3,0-0.6,0-1c0.6-2.5,1.9-3.1,6.4-3.6c0.4,0,0.9,0,1,0h35v-8.3h-34.4
	c-5.1,0-7.6,0.3-9.9,1c-7.1,2.4-10.5,5.9-10.5,12.3v7.1c0,5.5,6.1,10.4,16.6,11.4c1,0,2.4,0,3.6,0h12.6c0.4,0,0.9,0,1.3,0
	c3.8,0.4,5.5,1,6.7,2.5c0.9,0.9,0.9,1.5,0.9,2.4v7.1c0,0.9-0.6,1.9-1.7,3c-1,1-3,1.8-5.3,1.8c-0.4,0-0.9,0-1.3,0h-34v8H110.4z"/>
<path d="M241.6,383.4c0,8.5,6.4,13.1,19,13.9c1.3,0,2.4,0.3,3.6,0.3h32.1v-8.3h-32.2c-7.1,0-9.9-1.8-9.9-6.1v-42.4h-12.5v42.6H241.6
	z"/>
<path d="M172.9,383.8v-29.1c0-7.4,5.3-12,15.6-13.3c1,0,2.4-0.3,3.4-0.3h23.4c1.3,0,2.4,0,3.6,0.3c10.4,1.5,15.4,5.9,15.4,13.3v29.1
	c0,6.1-2.1,9.3-7.1,11.4l12,11H225l-9.7-8.9l-9.9,0.6h-13.1c-2.1,0-4.6-0.3-7.1-0.9C176.6,394.6,172.9,390.6,172.9,383.8
	L172.9,383.8z M186.1,383.1c0,0.4,0.3,0.9,0.3,1.3c0.6,3.4,3.8,5.3,8.6,5.3h11.3l-10.1-9.3h14.1l8.9,8c1.8-0.9,2.8-2.4,3.1-4
	c0-0.4,0-0.9,0-1.3v-28.1c0-0.4,0-0.9,0-1c-0.6-3.1-3.8-5.1-8.6-5.1h-18.4c-5.5,0-9.1,2.4-9.1,6.1V383.1L186.1,383.1z"/>
</svg>
