<?xml version="1.0" encoding="utf-8"?>
<!-- Generator: Adobe Illustrator 19.0.0, SVG Export Plug-In . SVG Version: 6.00 Build 0)  -->
<svg version="1.1" id="Layer_1" xmlns="http://www.w3.org/2000/svg" xmlns:xlink="http://www.w3.org/1999/xlink" x="0px" y="0px"
	 viewBox="-15 223 426 426" style="enable-background:new -15 223 426 426;" xml:space="preserve">
<g id="Layer_2_1_">
	<g>
		<g>
			<path d="M83.1,406.9c11.8,0,19.2,1.9,23.1,6.4c3.9,3.9,4.3,11.8,2.4,21.6c-1.9,10.8-5.8,18.6-12.3,23.1
				c-5.8,4.3-15.1,6.9-27.4,6.9H50.3L61.5,406C61.5,406.9,83.1,406.9,83.1,406.9z M8.7,524.4h30.4l6.9-37.3h26.5
				c11.8,0,20.5-1,28.4-3.4c7.3-2.4,14.2-6.4,20.1-12.3c4.9-4.3,9.3-10.3,12.7-15.7c3-5.4,5.4-12.3,6.4-18.6c3-16.6,1-29.3-6.9-38.6
				c-7.8-9.3-20.5-13.8-38.2-13.8H36.2L8.7,524.4z"/>
			<path d="M170.8,347.6h30.4l-6.9,37.3h26.9c16.6,0,28.9,3,34.7,9.3c6.4,5.8,8.8,15.7,5.4,28.9l-12.7,65.1h-30.8l12.3-61.7
				c1.5-6.9,1-11.8-1.5-14.2c-2.4-2.4-7.3-3.9-15.1-3.9h-24l-15.7,79.8h-30.4L170.8,347.6z"/>
			<path d="M328.5,406.9c11.8,0,19.2,1.9,23.1,6.4c3.9,3.9,4.3,11.8,2.4,21.6c-1.9,10.8-5.8,18.6-12.3,23.1
				c-5.8,4.3-15.1,6.9-27.4,6.9h-18.6l11.2-58.8C307.5,406.9,328.5,406.9,328.5,406.9z M254.5,524.4h30.4l6.9-37.3h26.5
				c11.8,0,20.5-1,28.4-3.4c7.3-2.4,14.2-6.4,20.1-12.3c4.9-4.3,9.3-10.3,12.7-15.7c3-5.4,5.4-12.3,6.4-18.6c3-16.6,1-29.3-6.9-38.6
				c-7.8-9.3-20.5-13.8-38.2-13.8h-58.8L254.5,524.4z"/>
		</g>
	</g>
</g>
</svg>
