<?xml version="1.0" encoding="utf-8"?>
<!-- Generator: Adobe Illustrator 19.0.0, SVG Export Plug-In . SVG Version: 6.00 Build 0)  -->
<svg version="1.1" id="Lager_1" xmlns="http://www.w3.org/2000/svg" xmlns:xlink="http://www.w3.org/1999/xlink" x="0px" y="0px"
	 viewBox="-241 333 128 128" style="enable-background:new -241 333 128 128;" xml:space="preserve">
<g>
	<g id="Ps_3_">
		<g>
			<path d="M-239.6,348.3c6.8-1.3,16-2.1,28.6-2.1c13.7,0,23.9,2.9,30.5,8.4c6,5,10,13.1,10,22.9s-3.2,17.9-8.9,23.4
				c-7.4,7.4-19.2,11-32.6,11c-3.4,0-6.8-0.3-9.2-0.5V450h-18.4V348.3L-239.6,348.3z M-221,396.2c2.4,0.5,5.3,0.8,9.2,0.8
				c13.9,0,22.6-6.8,22.6-18.9c0-11.6-7.9-17.6-21-17.6c-5.3,0-8.9,0.5-10.8,0.8V396.2z"/>
			<path d="M-162.1,432.7c4.2,2.6,12.3,5.3,19.2,5.3c8.1,0,11.8-3.4,11.8-8.1c0-5-3.2-7.6-12.1-10.8c-14.4-5-20.5-12.9-20.5-21.5
				c0-13.1,10.8-23.4,28.1-23.4c8.1,0,15.5,2.1,19.7,4.5l-3.7,13.4c-3.2-1.8-9.2-4.2-15.8-4.2c-6.8,0-10.2,3.2-10.2,7.9
				s3.4,7.1,12.9,10.2c13.4,5,19.7,11.8,19.7,22.9c0,13.4-10.5,23.1-30.2,23.1c-8.9,0-17.1-2.1-22.6-5.3L-162.1,432.7z"/>
		</g>
	</g>
</g>
</svg>
