<?xml version="1.0" encoding="utf-8"?>
<!-- Generator: Adobe Illustrator 19.0.0, SVG Export Plug-In . SVG Version: 6.00 Build 0)  -->
<svg version="1.1" id="Слой_1" xmlns="http://www.w3.org/2000/svg" xmlns:xlink="http://www.w3.org/1999/xlink" x="0px" y="0px"
	 viewBox="-49 141 512 512" style="enable-background:new -49 141 512 512;" xml:space="preserve">
<g id="Layer_7">
	<g>
		<path id="path1948_1_" d="M205,224.3c-14.1,0.1-27.5,1.3-39.4,3.4c-34.9,6.2-41.2,19.1-41.2,42.8v31.4h82.4v10.5h-82.4H93.5
			c-23.9,0-44.9,14.4-51.5,41.8c-7.6,31.4-7.9,51,0,83.7c5.9,24.4,19.8,41.8,43.8,41.8h28.3V442c0-27.2,23.5-51.2,51.5-51.2h82.3
			c22.9,0,41.2-18.9,41.2-41.9v-78.5c0-22.3-18.8-39.1-41.2-42.8C233.7,225.3,219.1,224.2,205,224.3z M160.4,249.6
			c8.5,0,15.5,7.1,15.5,15.7c0,8.7-7,15.7-15.5,15.7c-8.5,0-15.5-7-15.5-15.7C144.9,256.6,151.9,249.6,160.4,249.6z"/>
		<path id="path1950_1_" d="M299.4,312.4V349c0,28.4-24,52.2-51.5,52.2h-82.3c-22.5,0-41.2,19.3-41.2,41.9v78.5
			c0,22.3,19.4,35.5,41.2,41.9c26.1,7.7,51.1,9.1,82.3,0c20.7-6,41.2-18.1,41.2-41.9v-31.4h-82.3v-10.5h82.3h41.2
			c23.9,0,32.9-16.7,41.2-41.8c8.6-25.8,8.2-50.6,0-83.7c-5.9-23.8-17.2-41.8-41.2-41.8L299.4,312.4L299.4,312.4z M253.1,511.1
			c8.5,0,15.5,7,15.5,15.7c0,8.7-6.9,15.8-15.5,15.8c-8.5,0-15.5-7.1-15.5-15.8C237.6,518.1,244.6,511.1,253.1,511.1z"/>
	</g>
</g>
</svg>
