<?xml version="1.0" encoding="utf-8"?>
<!-- Generator: Adobe Illustrator 19.0.0, SVG Export Plug-In . SVG Version: 6.00 Build 0)  -->
<svg version="1.1" id="Layer_1" xmlns="http://www.w3.org/2000/svg" xmlns:xlink="http://www.w3.org/1999/xlink" x="0px" y="0px"
	 viewBox="-53 145 504 504" style="enable-background:new -53 145 504 504;" xml:space="preserve">
<path d="M45.9,397c0,60.7,35.2,113.1,86.4,137.6l-73-199.9C50.9,353.7,45.9,374.8,45.9,397z M302,389.3c0-18.9-6.7-31.7-12.8-42.3
	c-7.7-12.8-15.1-23.4-15.1-35.6c0-13.9,10.6-27.3,25.7-27.3c0.6,0,1.1,0,2.3,0c-27.3-25.1-63.4-40-103-40
	c-53.5,0-100.3,27.3-127.6,69c3.3,0,7.2,0,10,0c16.2,0,40.6-2.3,40.6-2.3c8.3-0.6,9.5,11.8,1.1,12.8c0,0-8.3,1.1-17.2,1.7
	l55.5,165.3l33.4-100.3l-24-65c-8.3-0.6-16.2-1.7-16.2-1.7c-8.3-0.6-7.2-13.3,1.1-12.8c0,0,25.1,2.3,40,2.3
	c16.2,0,40.6-2.3,40.6-2.3c8.3-0.6,9.5,11.8,1.1,12.8c0,0-8.3,1.1-17.2,1.7l55.2,164.3l15.1-50.6C298.1,418.8,302,402,302,389.3z
	 M201.7,410.5l-45.6,133.1c13.9,3.9,28.4,6.2,43.5,6.2c17.8,0,35.2-3.3,50.6-8.9c-0.6-0.6-0.6-1.1-1.1-2.3L201.7,410.5z
	 M333.2,323.5c0.6,5,1.1,10,1.1,15.6c0,15.6-2.7,32.9-11.8,54.5l-46.6,134.7c45.6-26.7,75.8-75.8,75.8-132
	C352.1,370.3,344.9,345.2,333.2,323.5z M20.8,397c0,98,80.2,178.2,178.2,178.2S377.2,495,377.2,397S297,218.8,199,218.8
	S20.8,298.4,20.8,397z M29.1,397c0-93.5,76.3-169.9,169.9-169.9S368.9,303.5,368.9,397S292.5,566.9,199,566.9S29.1,490.5,29.1,397z"
	/>
</svg>
