<?xml version="1.0" encoding="utf-8"?>
<!-- Generator: Adobe Illustrator 19.0.0, SVG Export Plug-In . SVG Version: 6.00 Build 0)  -->
<svg version="1.1" id="Слой_1" xmlns="http://www.w3.org/2000/svg" xmlns:xlink="http://www.w3.org/1999/xlink" x="0px" y="0px"
	 viewBox="0 0 317 317" style="enable-background:new 0 0 317 317;" xml:space="preserve">
<style type="text/css">
	.st0{fill:#020B10;}
	.st1{fill:#179EE8;}
</style>
<g id="XMLID_1_">
	<path id="XMLID_26_" class="st0" d="M256.5,14c26,0,47.1,21.1,47.1,47.1v194.8c0,26-21.1,47.1-47.1,47.1H61.7
		c-26,0-47.1-21.1-47.1-47.1V61.1c0-26,21.1-47.1,47.1-47.1H256.5 M256.5,12H61.7c-27.1,0-49.1,22-49.1,49.1v194.8
		c0,27.1,22,49.1,49.1,49.1h194.8c27.1,0,49.1-22,49.1-49.1V61.1C305.6,34,283.6,12,256.5,12L256.5,12z"/>
</g>
<g id="XMLID_2_">
	<g id="XMLID_5_">
		<g id="XMLID_20_">
			<path id="XMLID_37_" class="st0" d="M255.2,241.6l-129.5-66v-35.5l129.5-65l-0.2,35.5l-90,44c-4.9,1.9-9.2,3.1-12.9,3.5v0.7
				c4,0.6,8.4,1.8,13.3,3.8l89.8,43.5V241.6z"/>
		</g>
	</g>
	<g id="XMLID_22_">
		<g id="XMLID_4_">
			<path id="XMLID_30_" class="st1" d="M231.5,74.7H80c-9.3,0-16.8,7.5-16.8,16.8v0c0,9.3,7.5,16.8,16.8,16.8h83.7L231.5,74.7z"/>
		</g>
		<g id="XMLID_7_">
			<path id="XMLID_31_" class="st1" d="M231.5,242.3H80c-9.3,0-16.8-7.5-16.8-16.8v0c0-9.3,7.5-16.8,16.8-16.8h83.7L231.5,242.3z"/>
		</g>
		<g id="XMLID_6_">
			<path id="XMLID_32_" class="st1" d="M79.8,141.2h32.5c0.3,0,0.5,0.2,0.5,0.5v32.7c0,0.3-0.2,0.5-0.5,0.5H79.8
				c-9.3,0-16.8-7.5-16.8-16.8v0C63,148.7,70.5,141.2,79.8,141.2z"/>
		</g>
	</g>
</g>
</svg>
