<?xml version="1.0" encoding="utf-8"?>
<!-- Generator: Adobe Illustrator 19.0.0, SVG Export Plug-In . SVG Version: 6.00 Build 0)  -->
<svg version="1.1" id="Слой_1" xmlns="http://www.w3.org/2000/svg" xmlns:xlink="http://www.w3.org/1999/xlink" x="0px" y="0px"
	 viewBox="-518 304 185.9 186" style="enable-background:new -518 304 185.9 186;" xml:space="preserve">
<style type="text/css">
	.st0{fill:none;stroke:#179EE8;stroke-width:5;stroke-linecap:round;stroke-linejoin:round;stroke-miterlimit:10;}
</style>
<g>
	<line class="st0" x1="-421.5" y1="423.6" x2="-439.6" y2="435.2"/>
	<path class="st0" d="M-451.6,405.1l-25.5-8c-5.6-1.7-5.6-5.5,1.2-8.2l99.4-38.3c4.5-2.1,8.9,1,7.2,8l-16.9,79.8
		c-1.2,5.7-4.7,7-9.4,4.4c0,0,0,0,0,0l-41.2-30.4c-0.2-0.1-0.4,0-0.4,0.2l-1.4,21c-0.2,2.3-3.4,2.8-4.2,0.6l0-0.1l-8.7-28.7
		c0-0.1,0-0.2,0.1-0.3l70-42.1l-55.8,49.2"/>
</g>
</svg>
