<?xml version="1.0" encoding="utf-8"?>
<!-- Generator: Adobe Illustrator 19.0.0, SVG Export Plug-In . SVG Version: 6.00 Build 0)  -->
<svg version="1.1" id="Layer_1" xmlns="http://www.w3.org/2000/svg" xmlns:xlink="http://www.w3.org/1999/xlink" x="0px" y="0px"
	 viewBox="-406 191.8 410.2 410.2" style="enable-background:new -406 191.8 410.2 410.2;" xml:space="preserve">
<style type="text/css">
	.st0{fill:none;stroke:#179EE8;stroke-width:13;stroke-miterlimit:10;}
</style>
<path class="st0" d="M-73.1,312.7c-5.9,2.6-11.9,4.6-18.2,6.1c6.9-6.5,12.1-14.7,15-23.8l0,0c0.8-2.6-2-4.9-4.3-3.5l0,0
	c-8.7,5.2-18,9-27.8,11.5c-0.6,0.1-1.2,0.2-1.7,0.2c-1.8,0-3.5-0.7-4.9-1.9c-10.4-9.2-23.8-14.2-37.6-14.2c-6,0-12.1,0.9-18,2.8
	c-18.4,5.7-32.7,20.9-37.1,39.7c-1.7,7-2.1,14.1-1.3,20.9c0.1,0.8-0.3,1.3-0.5,1.6c-0.4,0.5-1,0.7-1.6,0.7c-0.1,0-0.1,0-0.2,0
	c-40.6-3.6-77-23.1-102.7-54.6l0,0c-1.3-1.6-3.8-1.4-4.9,0.4l0,0c-5,8.6-7.7,18.5-7.7,28.6c0,15.4,6.2,29.9,17,40.5
	c-4.5-1.1-8.9-2.8-13-5l0,0c-2-1.1-4.4,0.3-4.4,2.6l0,0c-0.3,22.9,13.1,43.3,33.2,52.5c-0.4,0-0.8,0-1.2,0c-3.2,0-6.4-0.3-9.6-0.9
	l0,0c-2.2-0.4-4.1,1.7-3.4,3.8l0,0c6.5,20.4,24,35.4,45,38.8c-17.4,11.7-37.7,17.8-58.8,17.8h-6.6c-2,0-3.7,1.3-4.3,3.3
	c-0.5,1.9,0.4,4,2.2,5c23.8,13.8,50.9,21.1,78.4,21.1c24.1,0,46.7-4.8,67-14.2c18.7-8.6,35.2-21,49-36.7c12.9-14.7,23-31.6,30-50.3
	c6.7-17.8,10.2-36.9,10.2-55v-0.9c0-2.9,1.3-5.7,3.6-7.5c8.7-7.1,16.3-15.4,22.6-24.8l0,0C-67.8,314.6-70.4,311.5-73.1,312.7
	L-73.1,312.7z"/>
</svg>
