<?xml version="1.0" encoding="utf-8"?>
<!-- Generator: Adobe Illustrator 19.0.0, SVG Export Plug-In . SVG Version: 6.00 Build 0)  -->
<svg version="1.1" id="Layer_1" xmlns="http://www.w3.org/2000/svg" xmlns:xlink="http://www.w3.org/1999/xlink" x="0px" y="0px"
	 viewBox="-389 174 445 445" style="enable-background:new -389 174 445 445;" xml:space="preserve">
<style type="text/css">
	.st0{fill:none;stroke:#179EE8;stroke-width:13;stroke-miterlimit:10;}
</style>
<path class="st0" d="M-170,479.5h17c0,0,5.1-0.6,7.7-3.4c2.4-2.6,2.3-7.5,2.3-7.5s-0.3-22.8,10.2-26.1c10.4-3.3,23.8,22,38,31.7
	c10.7,7.4,18.9,5.8,18.9,5.8l37.9-0.5c0,0,19.8-1.2,10.4-16.8c-0.8-1.3-5.5-11.5-28.2-32.6c-23.8-22.1-20.6-18.5,8.1-56.7
	c17.4-23.3,24.4-37.4,22.2-43.5c-2.1-5.8-14.9-4.3-14.9-4.3l-42.7,0.3c0,0-3.2-0.4-5.5,1c-2.3,1.4-3.8,4.6-3.8,4.6
	s-6.8,18-15.8,33.3c-19,32.3-26.6,34-29.7,32c-7.2-4.7-5.4-18.8-5.4-28.8c0-31.3,4.7-44.3-9.2-47.7c-4.6-1.1-8.1-1.9-19.9-2
	c-15.2-0.2-28.1,0-35.4,3.6c-4.9,2.4-8.6,7.7-6.3,8c2.8,0.4,9.2,1.7,12.6,6.3c4.4,6,4.2,19.3,4.2,19.3s2.5,36.8-5.9,41.4
	c-5.8,3.1-13.7-3.3-30.6-32.6c-8.7-15-15.2-31.6-15.2-31.6s-1.3-3.1-3.5-4.8c-2.7-2-6.6-2.6-6.6-2.6l-40.6,0.3c0,0-6.1,0.2-8.3,2.8
	c-2,2.4-0.2,7.2-0.2,7.2s31.8,74.3,67.7,111.8C-207.4,481.8-170,479.5-170,479.5L-170,479.5z"/>
</svg>
